{"title":"Taylor Swift - Wildest Dreams (2015.Pop)","uid":12327374,"size":84084138,"categoryP":"video","categoryS":"music_videos","magnet":"?xt=urn:btih:f3b6d51e14797b5cfb7d94637f393291dd0a1a3d&amp;dn=Taylor+Swift+-+Wildest+Dreams+%282015.Pop%29&amp;tr=udp%3A%2F%2Ftracker.openbittorrent.com%3A80&amp;tr=udp%3A%2F%2Fopen.demonii.com%3A1337&amp;tr=udp%3A%2F%2Ftracker.coppersurfer.tk%3A6969&amp;tr=udp%3A%2F%2Fexodus.desync.com%3A6969","seeders":0,"leechers":1,"uploader":"MeRaDil","files":1,"time":1441135129,"description":"TAYLOR SWIFT - WILDEST DREAMS\n\n &lt;a href=&quot;\nhttp://ultraimg.com/images/taylor-2.png&quot; rel=&quot;nofollow&quot; target=&quot;_NEW&quot;&gt;\nhttp://ultraimg.com/images/taylor-2.png&lt;/a&gt;\n &lt;a href=&quot;\nhttp://ultraimg.com/images/taylor-3.png&quot; rel=&quot;nofollow&quot; target=&quot;_NEW&quot;&gt;\nhttp://ultraimg.com/images/taylor-3.png&lt;/a&gt;\n &lt;a href=&quot;\nhttp://ultraimg.com/images/taylor-4.png&quot; rel=&quot;nofollow&quot; target=&quot;_NEW&quot;&gt;\nhttp://ultraimg.com/images/taylor-4.png&lt;/a&gt;\n\n\nGeneral\nTaylor Swift - Wildest Dreams\nFormat                                   : MPEG-4\nFormat profile                           : Base Media\nCodec ID                                 : isom\nFile size                                : 80.2 MiB\nDuration                                 : 3mn 54s\nOverall bit rate                         : 2 865 Kbps\nMusicVid name                            : Wildest Dreams\nAlbum                                    : 1989\nPerformer                                : Taylor Swift\nGenre                                    : Pop\nContentType                              : Music Video\nRecorded date                            : 2015\nRating                                   : ***\nMake                                     : MeRaDil\nRelease date                             : USA. august 30 . 2015\n &lt;a href=&quot;\nhttps://thepiratebay.vg/user/MeRaDil&quot; rel=&quot;nofollow&quot; target=&quot;_NEW&quot;&gt;\nhttps://thepiratebay.vg/user/MeRaDil&lt;/a&gt;\n\nVideo\nID                                       : 1\nFormat                                   : AVC\nFormat/Info                              : Advanced Video Codec\nFormat profile                           : &lt;a class=&quot;__cf_email__&quot; href=&quot;/cdn-cgi/l/email-protection&quot; data-cfemail=&quot;5e163739361e126a706e&quot;&gt;[email&amp;#160;protected]&lt;/a&gt;&lt;script data-cfhash='f9e31' type=&quot;text/javascript&quot;&gt;\n/* &lt;![CDATA[ */!function(){try{var t=&quot;currentScript&quot;in document?document.currentScript:function(){for(var t=document.getElementsByTagName(&quot;script&quot;),e=t.length;e--;)if(t[e].getAttribute(&quot;data-cfhash&quot;))return t[e]}();if(t&amp;&amp;t.previousSibling){var e,r,n,i,c=t.previousSibling,a=c.getAttribute(&quot;data-cfemail&quot;);if(a){for(e=&quot;&quot;,r=parseInt(a.substr(0,2),16),n=2;a.length-n;n+=2)i=parseInt(a.substr(n,2),16)^r,e+=String.fromCharCode(i);e=document.createTextNode(e),c.parentNode.replaceChild(e,c)}t.parentNode.removeChild(t);}}catch(u){}}()/* ]]&gt; */&lt;/script&gt;\nFormat settings, CABAC                   : Yes\nFormat settings, ReFrames                : 2 frames\nCodec ID                                 : avc1\nCodec ID/Info                            : Advanced Video Coding\nDuration                                 : 3mn 54s\nBit rate                                 : 2 587 Kbps\nWidth                                    : 1 920 pixels\nHeight                                   : 1 080 pixels\nDisplay aspect ratio                     : 16:9\nFrame rate mode                          : Variable\nFrame rate                               : 23.976 fps\nMinimum frame rate                       : 23.974 fps\nMaximum frame rate                       : 23.981 fps\nColor space                              : YUV\nChroma subsampling                       : 4:2:0\nBit depth                                : 8 bits\nScan type                                : Progressive\nBits/(Pixel*Frame)                       : 0.052\nStream size                              : 72.4 MiB (90%)\n\nAudio\nID                                       : 2\nFormat                                   : AAC\nFormat/Info                              : Advanced Audio Codec\nFormat profile                           : LC\nCodec ID                                 : 40\nDuration                                 : 3mn 54s\nBit rate mode                            : Constant\nBit rate                                 : 256 Kbps\nChannel(s)                               : 2 channels\nChannel positions                        : Front: L R\nSampling rate                            : 44.1 KHz\nCompression mode                         : Lossy\nStream size                              : 7.16 MiB (9%)\n\nTaylor Swift * 1989 * Promo * Pop","torrent":{"xt":"urn:btih:f3b6d51e14797b5cfb7d94637f393291dd0a1a3d","amp;dn":"Taylor+Swift+-+Wildest+Dreams+%282015.Pop%29","amp;tr":["udp%3A%2F%2Ftracker.openbittorrent.com%3A80","udp%3A%2F%2Fopen.demonii.com%3A1337","udp%3A%2F%2Ftracker.coppersurfer.tk%3A6969","udp%3A%2F%2Fexodus.desync.com%3A6969"],"infoHash":"f3b6d51e14797b5cfb7d94637f393291dd0a1a3d","infoHashBuffer":{"type":"Buffer","data":[243,182,213,30,20,121,123,92,251,125,148,99,127,57,50,145,221,10,26,61]},"announce":[],"urlList":[]}}